<svg width="1200" height="800" viewBox="0 0 1200 800" fill="none" xmlns="http://www.w3.org/2000/svg">
<g id="1floor">
<path id="Vector 1" d="M403 178H289.5V536H264.5V583H428.5V525.5H410.5V498H422.5V347.5H403V178Z" stroke="black"/>
<path id="prep" d="M403 222V198.5H383.5V222H403Z" stroke="black"/>
<path id="kaf_check" d="M353.5 236.5V222H373V236.5H353.5Z" stroke="black"/>
<path id="sport_gym2" d="M373 285H403V222H373V285Z" stroke="black"/>
<path id="dressW" d="M403 324H385.5V285H403V324Z" stroke="black"/>
<path id="showW" d="M385.5 358V324H403V347.5H422.5V358H385.5Z" stroke="black"/>
<path id="sport_gym" d="M353.5 222H289.5V263.5H373V236.5H353.5V222Z" stroke="black"/>
<path id="sport" d="M373 263.5H289.5V498.5H373V263.5Z" stroke="black"/>
<path id="st" d="M402.5 368.5V358H422.5V368.5H402.5Z" stroke="black"/>
<path id="el" d="M402.5 400.5V392H422.5V400.5H402.5Z" stroke="black"/>
<path id="tW" d="M402.5 411.5V400.5H422.5V411.5H402.5Z" stroke="black"/>
<path id="st_2" d="M402.5 421.5H422.5V411.5H402.5V421.5Z" stroke="black"/>
<path id="tM" d="M402.5 439.5H396.5V456.5H402.5V439.5Z" stroke="black"/>
<path id="tW_2" d="M402.5 456.5H396.5V471.5H402.5V456.5Z" stroke="black"/>
<path id="showM" d="M396.5 432.5H384.5V464.5H396.5V432.5Z" stroke="black"/>
<path id="dressM" d="M396.5 498H384.5V464.5H396.5V498Z" stroke="black"/>
<path id="109" d="M422.5 472H410.5V439.5H422.5V472Z" stroke="black"/>
<path id="110" d="M422.5 498H410.5V472H422.5V498Z" stroke="black"/>
<path id="111" d="M396.5 498H410.5V481.5H396.5V498Z" stroke="black"/>
<path id="100(A)" d="M391 525.5V498H410.5V525.5H391Z" stroke="black"/>
<path id="dir" d="M410.5 541.5H391V525.5H410.5V541.5Z" stroke="black"/>
<path id="100" d="M391 541.5V583H428.5V525.5H410.5V541.5H391Z" stroke="black"/>
<path id="sport_yoga" d="M348.5 498.5H289.5V536H348.5V498.5Z" stroke="black"/>
<path id="inv" d="M348.5 498.5H373V522.5H348.5V498.5Z" stroke="black"/>
<path id="prep_2" d="M373 536H348.5V522.5H373V536Z" stroke="black"/>
<path id="che" d="M289.5 583V536H264.5V583H289.5Z" stroke="black"/>
<path id="Vector 32" d="M305 549.5H289.5V583H305V549.5Z" stroke="black"/>
<path id="107" d="M305 583H320.5V549.5H305V583Z" stroke="black"/>
<path id="Vector 34" d="M320.5 583H330.5V549.5H320.5V583Z" stroke="black"/>
<path id="101A(6)" d="M330.5 583H348V570.5H330.5V583Z" stroke="black"/>
<path id="Vector 36" d="M348 563H330.5V570.5H348V563Z" stroke="black"/>
<path id="106" d="M348 549.5H330.5V563H348V549.5Z" stroke="black"/>
<path id="101A(7)" d="M358.5 549.5H348V563H358.5V549.5Z" stroke="black"/>
<path id="101A(8)" d="M369.5 549.5H358.5V563H369.5V549.5Z" stroke="black"/>
<path id="101A(9)" d="M369.5 549.5H379V563H369.5V549.5Z" stroke="black"/>
<path id="Vector 41" d="M379 549.5H391V563H379V549.5Z" stroke="black"/>
<path id="101A(5)" d="M358.5 570.5H348V583H358.5V570.5Z" stroke="black"/>
<path id="101A(4)" d="M369.5 570.5H358.5V583H369.5V570.5Z" stroke="black"/>
<path id="101A(3)" d="M384.5 570.5H369.5V583H384.5V570.5Z" stroke="black"/>
<path id="Vector 45" d="M391 570.5H384.5V583H391V570.5Z" stroke="black"/>
<path id="Vector 46" d="M535 315.5H466.5V445H535V315.5Z" stroke="black"/>
<path id="211" d="M500.5 343.5V315.5H466.5L466.5 343.5H500.5Z" stroke="black"/>
<path id="212" d="M535 343.5H500.5V315.5H535V343.5Z" stroke="black"/>
<path id="az" d="M478.5 343.5H466.5V359.5H478.5V343.5Z" stroke="black"/>
<path id="ums" d="M478.5 359.5H493.5V343.5H478.5V359.5Z" stroke="black"/>
<path id="chto" d="M508.5 361.5V343.5H535V361.5H508.5Z" stroke="black"/>
<path id="st_3" d="M498.5 363.5H478.5V374.5H498.5V363.5Z" stroke="black"/>
<path id="hz" d="M493.5 392.5H466.5V418.5H493.5V392.5Z" stroke="black"/>
<path id="210" d="M500.5 418.5H466.5V445H500.5V418.5Z" stroke="black"/>
<path id="209" d="M535 445H500.5V418.5H535V445Z" stroke="black"/>
<path id="Vector 56" d="M940.5 529.5H817.5V579.5H977.5V537.5H940.5V529.5Z" stroke="black"/>
<path id="shtab" d="M940.5 551V537.5H977.5V551H940.5Z" stroke="black"/>
<path id="uvr" d="M951.5 555.5H940.5V579.5H977.5V564.5H951.5V555.5Z" stroke="black"/>
<path id="st_4" d="M940.5 568.5H922.5V579.5H940.5V568.5Z" stroke="black"/>
<path id="uvr_2" d="M864.5 543.5V529.5H940.5V551H881.5V543.5H864.5Z" stroke="black"/>
<path id="tALL" d="M922.5 556.5V579.5H881.5V568V556.5H922.5Z" stroke="black"/>
<path id="uvr_3" d="M864.5 543.5V579.5H881.5V543.5C881.5 543.1 870.167 543.333 864.5 543.5Z" stroke="black"/>
<path id="uvr_4" d="M864.5 579.5H817.5V529.5H864.5V579.5Z" stroke="black"/>
<path id="Vector 64" d="M843.5 472.5H826.5V410.5H846.5V421.5H852.5V446.5H843.5V472.5Z" stroke="black"/>
<path id="4" d="M843.5 462.5H826.5V472.5H843.5V462.5Z" stroke="black"/>
<path id="ch" d="M838.5 429.5H852.5V446.5H838.5V429.5Z" stroke="black"/>
<path id="2" d="M834.5 446.5H826.5V429.5H834.5V446.5Z" stroke="black"/>
<path id="st_5" d="M846.5 421.5H826.5V410.5H846.5V421.5Z" stroke="black"/>
<path id="Vector 69" d="M783 315.5H714.5V445H783V315.5Z" stroke="black"/>
<path id="207" d="M743.5 418.5H714.5V445H743.5V418.5Z" stroke="black"/>
<path id="205" d="M752.5 418.5V445H783V418.5H752.5Z" stroke="black"/>
<path id="208" d="M743.5 341.5V315.5H714.5V341.5H743.5Z" stroke="black"/>
<path id="206" d="M752.5 341.5V315.5H783V341.5H752.5Z" stroke="black"/>
<path id="kaf" d="M755.5 359.5V341.5H783V359.5H755.5Z" stroke="black"/>
<path id="st_6" d="M772.5 363.5H752.5V374.5H772.5V363.5Z" stroke="black"/>
<path id="Vector 77" d="M669.5 236.5H579.5V257.5H558.5V348.5H564.5V398.5H558.5V523.5H690.5V398.5H684.5V348.5H690.5V257.5H669.5V236.5Z" stroke="black"/>
<path id="entrance" d="M613.5 523.5V502.5H635.5V523.5H613.5Z" stroke="black"/>
<path id="Vector 102" d="M603.5 502.5H580.5V429.5H603.5V502.5Z" stroke="black"/>
<path id="st_7" d="M588.5 404.5H572.5V424.5H588.5V404.5Z" stroke="black"/>
<path id="st_8" d="M676.5 404.5H660.5V424.5H676.5V404.5Z" stroke="black"/>
<path id="shop" d="M675.5 386.5H666.5V398.5H675.5V386.5Z" stroke="black"/>
<path id="tW_3" d="M675.5 386.5H684.5V398.5H675.5V386.5Z" stroke="black"/>
<path id="tM_2" d="M564.5 386.5H574.5V398.5H564.5V386.5Z" stroke="black"/>
<path id="st_9" d="M580.5 373.5H564.5V348.5H580.5V373.5Z" stroke="black"/>
<path id="el_2" d="M586.5 373.5H580.5V348.5H586.5V373.5Z" stroke="black"/>
<path id="st_10" d="M596.5 348.5V373.5H652.5V348.5H596.5Z" stroke="black"/>
<path id="el_3" d="M668.5 348.5H662.5V373.5H668.5V348.5Z" stroke="black"/>
<path id="st_11" d="M668.5 373.5H684.5V348.5H668.5V373.5Z" stroke="black"/>
<path id="actback" d="M669.5 257.5H579.5V236.5H669.5V257.5Z" stroke="black"/>
<path id="check" d="M579.5 257.5H558.5V314.5H579.5V257.5Z" stroke="black"/>
<path id="lab" d="M669.5 257.5V314.5H690.5V257.5H669.5Z" stroke="black"/>
<path id="act" d="M669.5 314.5H579.5V257.5H669.5V314.5Z" stroke="black"/>
<path id="103" d="M597.5 453.5V429.5H580.5V453.5H597.5Z" stroke="black"/>
<path id="102" d="M597.5 473.5H580.5V502.5H597.5V473.5Z" stroke="black"/>
<path id="kassa" d="M668.5 451.5H646.5V429.5H668.5V451.5Z" stroke="black"/>
<path id="107_2" d="M656.5 467.5H668.5V482.5H656.5V467.5Z" stroke="black"/>
<path id="108" d="M657.5 490.5H646.5V502.5H657.5V490.5Z" stroke="black"/>
<path id="Vector 101" d="M422.5 498H396.5V421.5H422.5V498Z" stroke="black"/>
<path id="tALL_2" d="M320.5 574H305V583H320.5V574Z" stroke="black"/>
<path id="3" d="M843.5 446.5H826.5V462.5H843.5V446.5Z" stroke="black"/>
<path id="Vector 103" d="M668.5 502.5H646.5V429.5H668.5V502.5Z" stroke="black"/>
</g>
</svg>
