<svg width="1200" height="800" viewBox="0 0 1200 800" fill="none" xmlns="http://www.w3.org/2000/svg">
<g id="3floor">
<path id="dir" d="M421.5 292.5H402.5V284.5H421.5V292.5Z" stroke="black"/>
<path id="358" d="M402.5 313.5V292.5H421.5V313.5H402.5Z" stroke="black"/>
<path id="356_check" d="M396.5 335.5H384.5V296.5H396.5V335.5Z" stroke="black"/>
<path id="359" d="M402.5 346.5V313.5H421.5V346.5H402.5Z" stroke="black"/>
<path id="355" d="M396.5 346.5H384.5V335.5H396.5V346.5Z" stroke="black"/>
<path id="354" d="M396.5 368.5H384.5V346.5H396.5V368.5Z" stroke="black"/>
<path id="tW" d="M402.5 358.5V346.5H421.5V358.5H402.5Z" stroke="black"/>
<path id="st" d="M402.5 368.5V358.5H421.5V368.5H402.5Z" stroke="black"/>
<path id="353" d="M396.5 392.5H384.5V409.5H396.5V392.5Z" stroke="black"/>
<path id="el" d="M421.5 392.5H402.5V400.5H421.5V392.5Z" stroke="black"/>
<path id="307_check" d="M865.5 392.5H853.5V411.5H865.5V392.5Z" stroke="black"/>
<path id="tW_2" d="M848.5 411.5V400.5H828.5V411.5H848.5Z" stroke="black"/>
<path id="st_2" d="M848.5 421.5H828.5V411.5H848.5V421.5Z" stroke="black"/>
<path id="313" d="M848.5 449.5V421.5H828.5V449.5H848.5Z" stroke="black"/>
<path id="309_check" d="M853.5 449.5V421.5H865.5V449.5H853.5Z" stroke="black"/>
<path id="312" d="M848.5 449.5H828.5V474.5H848.5V449.5Z" stroke="black"/>
<path id="310_check" d="M853.5 487.5V449.5H865.5V487.5H853.5Z" stroke="black"/>
<path id="311" d="M848.5 474.5H828.5V499.5H848.5V474.5Z" stroke="black"/>
<path id="308_check" d="M853.5 421.5V411.5H865.5V421.5H853.5Z" stroke="black"/>
<path id="352" d="M396.5 432.5V409.5H384.5V432.5H396.5Z" stroke="black"/>
<path id="tT" d="M402.5 411.5V400.5H421.5V411.5H402.5Z" stroke="black"/>
<path id="st_3" d="M402.5 422.5V411.5H421.5V422.5H402.5Z" stroke="black"/>
<path id="conf" d="M405.5 499.5H421.5V454.5H405.5V499.5Z" stroke="black"/>
<path id="3floor_2" d="M421.5 284.5H384.5V499.5H421.5V386.5H446.5V413.5H803.5V386.5H828.5V499.5H865.5V284.5H828.5V374.5H803.5V347.5H446.5V374.5H421.5V284.5Z" stroke="black"/>
<path id="348_check" d="M463.5 374.5H446.5V347.5H463.5V374.5Z" stroke="black"/>
<path id="346_check" d="M481.5 374.5H463.5V347.5H481.5V374.5Z" stroke="black"/>
<path id="344_check" d="M500.5 347.5H481.5V374.5H500.5V347.5Z" stroke="black"/>
<path id="342_check" d="M500.5 374.5H518.5V347.5H500.5V374.5Z" stroke="black"/>
<path id="340" d="M537.5 374.5H518.5V347.5H537.5V374.5Z" stroke="black"/>
<path id="338" d="M551.5 374.5H537.5V347.5H551.5V374.5Z" stroke="black"/>
<path id="336" d="M565.5 374.5H551.5V347.5H565.5V374.5Z" stroke="black"/>
<path id="st_4" d="M580.5 374.5H565.5V347.5H580.5V374.5Z" stroke="black"/>
<path id="el_2" d="M587.5 374.5H580.5V347.5H587.5V374.5Z" stroke="black"/>
<path id="332" d="M615.5 374.5H596.5V347.5H615.5V374.5Z" stroke="black"/>
<path id="330" d="M634.5 374.5H615.5V347.5H634.5V374.5Z" stroke="black"/>
<path id="328" d="M653.5 374.5H634.5V347.5H653.5V374.5Z" stroke="black"/>
<path id="el_3" d="M670.5 374.5H662.5V347.5H670.5V374.5Z" stroke="black"/>
<path id="st_5" d="M685.5 374.5H670.5V347.5H685.5V374.5Z" stroke="black"/>
<path id="326" d="M702.5 374.5H685.5V347.5H702.5V374.5Z" stroke="black"/>
<path id="324" d="M719.5 374.5H702.5V347.5H719.5V374.5Z" stroke="black"/>
<path id="322_check" d="M744.5 374.5H719.5V347.5H744.5V374.5Z" stroke="black"/>
<path id="320_check" d="M754.5 374.5H744.5V347.5H754.5V374.5Z" stroke="black"/>
<path id="318" d="M768.5 374.5H754.5V347.5H768.5V374.5Z" stroke="black"/>
<path id="316" d="M785.5 374.5H768.5V347.5H785.5V374.5Z" stroke="black"/>
<path id="314" d="M803.5 374.5H785.5V347.5H803.5V374.5Z" stroke="black"/>
<path id="349_check" d="M464.5 386.5H446.5V413.5H464.5V386.5Z" stroke="black"/>
<path id="317" d="M787.5 413.5H771.5V386.5H787.5V413.5Z" stroke="black"/>
<path id="347" d="M482.5 413.5H464.5V386.5H482.5V413.5Z" stroke="black"/>
<path id="345_check" d="M500.5 413.5H482.5V386.5H500.5V413.5Z" stroke="black"/>
<path id="343" d="M508.5 386.5V413.5H519.5V386.5H508.5Z" stroke="black"/>
<path id="341_check" d="M535.5 413.5H519.5V386.5H535.5V413.5Z" stroke="black"/>
<path id="309" d="M553.5 386.5H535.5V413.5H553.5V386.5Z" stroke="black"/>
<path id="337_check" d="M579.5 413.5H553.5V386.5H579.5V413.5Z" stroke="black"/>
<path id="tM" d="M587.5 413.5H579.5V386.5H587.5V413.5Z" stroke="black"/>
<path id="335" d="M605.5 386.5H587.5V413.5H605.5V386.5Z" stroke="black"/>
<path id="334" d="M620.5 413.5H605.5V386.5H620.5V413.5Z" stroke="black"/>
<path id="333" d="M620.5 413.5H638.5V386.5H620.5V413.5Z" stroke="black"/>
<path id="331" d="M655.5 413.5H638.5V386.5H655.5V413.5Z" stroke="black"/>
<path id="329" d="M670.5 413.5H655.5V386.5H670.5V413.5Z" stroke="black"/>
<path id="tW_3" d="M679.5 413.5H670.5V386.5H679.5V413.5Z" stroke="black"/>
<path id="327" d="M705.5 386.5H679.5V413.5H705.5V386.5Z" stroke="black"/>
<path id="325" d="M721.5 413.5H705.5V386.5H721.5V413.5Z" stroke="black"/>
<path id="323" d="M739.5 413.5H721.5V386.5H739.5V413.5Z" stroke="black"/>
<path id="308" d="M746.5 413.5H739.5V386.5H746.5V413.5Z" stroke="black"/>
<path id="319" d="M756.5 386.5V413.5H771.5V386.5H756.5Z" stroke="black"/>
<path id="315" d="M803.5 413.5H787.5V386.5H803.5V413.5Z" stroke="black"/>
<path id="301" d="M848.5 284.5H828.5V308.5H848.5V284.5Z" stroke="black"/>
<path id="302" d="M848.5 330.5V308.5H828.5V330.5H848.5Z" stroke="black"/>
<path id="303_check" d="M865.5 295.5H853.5V337.5H865.5V295.5Z" stroke="black"/>
<path id="304_check" d="M848.5 349.5V330.5H828.5V349.5H848.5Z" stroke="black"/>
<path id="305_check" d="M853.5 349.5V337.5H865.5V349.5H853.5Z" stroke="black"/>
<path id="tM_2" d="M848.5 349.5H828.5V358.5H848.5V349.5Z" stroke="black"/>
<path id="st_6" d="M828.5 358.5V369.5H848.5V358.5H828.5Z" stroke="black"/>
<path id="306_check" d="M865.5 349.5H853.5V369.5H865.5V349.5Z" stroke="black"/>
<path id="el_4" d="M848.5 392.5H828.5V400.5H848.5V392.5Z" stroke="black"/>
<path id="351_check " d="M421.5 432.5H384.5V499.5H405.5V454.5H421.5V432.5Z" stroke="black"/>
</g>
</svg>
