<svg width="1200" height="800" viewBox="0 0 1200 800" fill="none" xmlns="http://www.w3.org/2000/svg">
<g id="5floor">
<path id="Vector 1" d="M423.5 283.5H386.5V497.5H423.5V385.5H448.5V411.5H802.5V385.5H828.5V497.5H864.5V283.5H828.5V372.5H802.5V346.5H448.5V372.5H423.5V283.5Z" stroke="black"/>
<path id="553" d="M398.5 334.5H386.5V283.5H398.5V334.5Z" stroke="black"/>
<path id="556_check" d="M423.5 324.5H403.5V283.5H423.5V324.5Z" stroke="black"/>
<path id="557_check" d="M403.5 345.5V324.5H423.5V345.5H403.5Z" stroke="black"/>
<path id="552" d="M398.5 367.5H386.5V334.5H398.5V367.5Z" stroke="black"/>
<path id="tT" d="M423.5 357.5H403.5V345.5H423.5V357.5Z" stroke="black"/>
<path id="st" d="M403.5 367.5V357.5H423.5V367.5H403.5Z" stroke="black"/>
<path id="551" d="M398.5 391.5H386.5V421.5H398.5V391.5Z" stroke="black"/>
<path id="el" d="M423.5 390.5H403.5V399.5H423.5V390.5Z" stroke="black"/>
<path id="tT_2" d="M403.5 410.5V399.5H423.5V410.5H403.5Z" stroke="black"/>
<path id="st_2" d="M403.5 421.5V410.5H423.5V421.5H403.5Z" stroke="black"/>
<path id="545" d="M403.5 431.5V421.5H423.5V431.5H403.5Z" stroke="black"/>
<path id="550_check" d="M398.5 452.5V421.5H386.5V452.5H398.5Z" stroke="black"/>
<path id="546_check" d="M403.5 453.5V431.5H423.5V453.5H403.5Z" stroke="black"/>
<path id="549_check" d="M398.5 452.5H386.5V485.5H398.5V452.5Z" stroke="black"/>
<path id="547" d="M423.5 453.5H403.5V474.5H423.5V453.5Z" stroke="black"/>
<path id="548_check" d="M403.5 497.5V474.5H423.5V497.5H403.5Z" stroke="black"/>
<path id="554" d="M464.5 372.5H448.5V346.5H464.5V372.5Z" stroke="black"/>
<path id="542" d="M483.5 372.5H464.5V346.5H483.5V372.5Z" stroke="black"/>
<path id="540" d="M499.5 372.5H483.5V346.5H499.5V372.5Z" stroke="black"/>
<path id="538" d="M516.5 372.5H499.5V346.5H516.5V372.5Z" stroke="black"/>
<path id="536" d="M534.5 372.5H516.5V346.5H534.5V372.5Z" stroke="black"/>
<path id="534" d="M549.5 372.5H534.5V346.5H549.5V372.5Z" stroke="black"/>
<path id="532" d="M566.5 372.5H549.5V346.5H566.5V372.5Z" stroke="black"/>
<path id="st_3" d="M581.5 372.5H566.5V346.5H581.5V372.5Z" stroke="black"/>
<path id="el_2" d="M588.5 372.5H581.5V346.5H588.5V372.5Z" stroke="black"/>
<path id="530" d="M619.5 372.5H597.5V346.5H619.5V372.5Z" stroke="black"/>
<path id="528_check" d="M653.5 372.5H619.5V346.5H653.5V372.5Z" stroke="black"/>
<path id="el_3" d="M670.5 372.5H662.5V346.5H670.5V372.5Z" stroke="black"/>
<path id="st_4" d="M685.5 346.5H670.5V372.5H685.5V346.5Z" stroke="black"/>
<path id="522" d="M700.5 372.5H685.5V346.5H700.5V372.5Z" stroke="black"/>
<path id="520" d="M725.5 372.5H700.5V346.5H725.5V372.5Z" stroke="black"/>
<path id="518" d="M751.5 372.5H725.5V346.5H751.5V372.5Z" stroke="black"/>
<path id="516" d="M767.5 372.5H751.5V346.5H767.5V372.5Z" stroke="black"/>
<path id="515" d="M782.5 372.5H767.5V346.5H782.5V372.5Z" stroke="black"/>
<path id="514" d="M802.5 372.5H782.5V346.5H802.5V372.5Z" stroke="black"/>
<path id="543" d="M463.5 385.5H448.5V411.5H463.5V385.5Z" stroke="black"/>
<path id="541" d="M481.5 385.5H463.5V411.5H481.5V385.5Z" stroke="black"/>
<path id="539" d="M499.5 411.5H481.5V385.5H499.5V411.5Z" stroke="black"/>
<path id="537" d="M531.5 411.5H507.5V385.5H531.5V411.5Z" stroke="black"/>
<path id="535" d="M549.5 411.5H531.5V385.5H549.5V411.5Z" stroke="black"/>
<path id="533" d="M572.5 411.5H549.5V385.5H572.5V411.5Z" stroke="black"/>
<path id="tM" d="M583.5 411.5H572.5V385.5H583.5V411.5Z" stroke="black"/>
<path id="531" d="M599.5 411.5H583.5V385.5H599.5V411.5Z" stroke="black"/>
<path id="529" d="M632.5 411.5H599.5V385.5H632.5V411.5Z" stroke="black"/>
<path id="527_check" d="M640.5 411.5H632.5V385.5H640.5V411.5Z" stroke="black"/>
<path id="525" d="M663.5 411.5H640.5V385.5H663.5V411.5Z" stroke="black"/>
<path id="tW" d="M673.5 411.5H663.5V385.5H673.5V411.5Z" stroke="black"/>
<path id="523_check" d="M688.5 411.5H673.5V385.5H688.5V411.5Z" stroke="black"/>
<path id="521" d="M714.5 411.5H688.5V385.5H714.5V411.5Z" stroke="black"/>
<path id="519" d="M741.5 411.5H714.5V385.5H741.5V411.5Z" stroke="black"/>
<path id="517" d="M774.5 411.5H749.5V385.5H774.5V411.5Z" stroke="black"/>
<path id="513" d="M802.5 411.5H774.5V385.5H802.5V411.5Z" stroke="black"/>
<path id="501" d="M847.5 305.5H828.5V283.5H847.5V305.5Z" stroke="black"/>
<path id="502_check" d="M864.5 307.5H853.5V294.5H864.5V307.5Z" stroke="black"/>
<path id="503" d="M847.5 305.5H828.5V326.5H847.5V305.5Z" stroke="black"/>
<path id="504_check" d="M853.5 338.5V307.5H864.5V338.5H853.5Z" stroke="black"/>
<path id="505_check" d="M847.5 347.5V326.5H828.5V347.5H847.5Z" stroke="black"/>
<path id="506" d="M853.5 367.5V338.5H864.5V367.5H853.5Z" stroke="black"/>
<path id="tM_2" d="M847.5 347.5H828.5V357.5H847.5V347.5Z" stroke="black"/>
<path id="st_5" d="M847.5 367.5H828.5V357.5H847.5V367.5Z" stroke="black"/>
<path id="el_4" d="M847.5 390.5H828.5V399.5H847.5V390.5Z" stroke="black"/>
<path id="507_check" d="M864.5 391.5H853.5V423.5H864.5V391.5Z" stroke="black"/>
<path id="tW_2" d="M847.5 399.5H828.5V410.5H847.5V399.5Z" stroke="black"/>
<path id="st_6" d="M847.5 410.5H828.5V421.5H847.5V410.5Z" stroke="black"/>
<path id="508_check" d="M847.5 451.5H828.5V421.5H847.5V451.5Z" stroke="black"/>
<path id="509_check" d="M864.5 453.5H853.5V423.5H864.5V453.5Z" stroke="black"/>
<path id="510" d="M847.5 471.5H828.5V451.5H847.5V471.5Z" stroke="black"/>
<path id="511_check" d="M853.5 485.5V453.5H864.5V485.5H853.5Z" stroke="black"/>
<path id="512" d="M847.5 497.5H828.5V471.5H847.5V497.5Z" stroke="black"/>
</g>
</svg>
