<svg width="1200" height="800" viewBox="0 0 1200 800" fill="none" xmlns="http://www.w3.org/2000/svg">
<g id="6floor">
<path id="651" d="M385.5 485.5H396.5V458.5H385.5V485.5Z" stroke="black"/>
<path id="611_check" d="M865.5 485.5H854.5V458.5H865.5V485.5Z" stroke="black"/>
<path id="652" d="M385.5 425.5V458.5H396.5V425.5H385.5Z" stroke="black"/>
<path id="653" d="M385.5 390.5V425.5H396.5V390.5H385.5Z" stroke="black"/>
<path id="el" d="M402.5 398.5V390.5H421.5V398.5H402.5Z" stroke="black"/>
<path id="tW" d="M402.5 398.5V410H421.5V398.5H402.5Z" stroke="black"/>
<path id="st" d="M402.5 410V420.5H421.5V410H402.5Z" stroke="black"/>
<path id="647" d="M402.5 420.5V435H421.5V420.5H402.5Z" stroke="black"/>
<path id="648" d="M402.5 435V455.5H421.5V435H402.5Z" stroke="black"/>
<path id="649_check" d="M402.5 455.5V476.5H421.5V455.5H402.5Z" stroke="black"/>
<path id="650" d="M402.5 476.5V497.5H421.5V476.5H402.5Z" stroke="black"/>
<path id="st_2" d="M402.5 357V367.5H421.5V357H402.5Z" stroke="black"/>
<path id="tT" d="M402.5 345.5V357H421.5V345.5H402.5Z" stroke="black"/>
<path id="658_check" d="M402.5 327.5V345.5H421.5V327.5H402.5Z" stroke="black"/>
<path id="657" d="M402.5 282.5V327.5H421.5V282.5H402.5Z" stroke="black"/>
<path id="654" d="M396.5 367.5H385.5V336.5H396.5V367.5Z" stroke="black"/>
<path id="655" d="M396.5 336.5H385.5V327.5H396.5V336.5Z" stroke="black"/>
<path id="656_check" d="M385.5 294.5V327.5H396.5V294.5H385.5Z" stroke="black"/>
<path id="646_check" d="M447.5 346.5V372.5H462.5V346.5C462.5 346.1 452.5 346.333 447.5 346.5Z" stroke="black"/>
<path id="645" d="M447.5 411.5V385.5H476.5V411.5H447.5Z" stroke="black"/>
<path id="643" d="M504.5 411.5H476.5V385.5H504.5V411.5Z" stroke="black"/>
<path id="644_check" d="M480.5 372.5H462.5V346.5H480.5V372.5Z" stroke="black"/>
<path id="642" d="M497.5 372.5H480.5V346.5H497.5V372.5Z" stroke="black"/>
<path id="641" d="M513.5 385.5V411.5H537.5V385.5H513.5Z" stroke="black"/>
<path id="637" d="M555.5 411.5H537.5V385.5H555.5V411.5Z" stroke="black"/>
<path id="635" d="M582.5 411.5H555.5V385.5H582.5V411.5Z" stroke="black"/>
<path id="tM" d="M591.5 411.5H582.5V385.5H591.5V411.5Z" stroke="black"/>
<path id="634" d="M599.5 411.5H591.5V385.5H599.5V411.5Z" stroke="black"/>
<path id="el_2" d="M587.5 372.5H580.5V346.5H587.5V372.5Z" stroke="black"/>
<path id="el_3" d="M670.5 372.5H663.5V346.5H670.5V372.5Z" stroke="black"/>
<path id="640" d="M523.5 372.5H497.5V346.5H523.5V372.5Z" stroke="black"/>
<path id="639" d="M531.5 372.5H523.5V346.5H531.5V372.5Z" stroke="black"/>
<path id="638_check" d="M556.5 372.5H531.5V346.5H556.5V372.5Z" stroke="black"/>
<path id="636" d="M565.5 372.5H556.5V346.5H565.5V372.5Z" stroke="black"/>
<path id="st_3" d="M580.5 372.5H565.5V346.5H580.5V372.5Z" stroke="black"/>
<path id="632" d="M628.5 372.5H597.5V346.5H628.5V372.5Z" stroke="black"/>
<path id="630" d="M636.5 372.5H628.5V346.5H636.5V372.5Z" stroke="black"/>
<path id="628" d="M653.5 372.5H636.5V346.5H653.5V372.5Z" stroke="black"/>
<path id="st_4" d="M685.5 372.5H670.5V346.5H685.5V372.5Z" stroke="black"/>
<path id="626" d="M700.5 372.5H685.5V346.5H700.5V372.5Z" stroke="black"/>
<path id="624" d="M717.5 372.5H700.5V346.5H717.5V372.5Z" stroke="black"/>
<path id="622" d="M743.5 372.5H717.5V346.5H743.5V372.5Z" stroke="black"/>
<path id="620" d="M754.5 372.5H743.5V346.5H754.5V372.5Z" stroke="black"/>
<path id="618" d="M769.5 372.5H754.5V346.5H769.5V372.5Z" stroke="black"/>
<path id="616_check" d="M786.5 372.5H769.5V346.5H786.5V372.5Z" stroke="black"/>
<path id="614_check" d="M803.5 372.5H786.5V346.5H803.5V372.5Z" stroke="black"/>
<path id="613" d="M803.5 411.5H787.5V385.5H803.5V411.5Z" stroke="black"/>
<path id="615" d="M787.5 411.5H772.5V385.5H787.5V411.5Z" stroke="black"/>
<path id="617_check" d="M764.5 385.5V411.5H772.5V385.5H764.5Z" stroke="black"/>
<path id="619" d="M754.5 385.5V411.5H730.5V385.5H754.5Z" stroke="black"/>
<path id="621" d="M703.5 385.5V411.5H730.5V385.5H703.5Z" stroke="black"/>
<path id="623" d="M690.5 385.5V411.5H703.5V385.5H690.5Z" stroke="black"/>
<path id="625" d="M681.5 385.5V411.5H690.5V385.5H681.5Z" stroke="black"/>
<path id="tW_2" d="M672.5 385.5V411.5H681.5V385.5H672.5Z" stroke="black"/>
<path id="627" d="M650.5 385.5V411.5H672.5V385.5H650.5Z" stroke="black"/>
<path id="629" d="M641.5 385.5V411.5H650.5V385.5H641.5Z" stroke="black"/>
<path id="631_check" d="M623 385.5V411.5H641.5V385.5H623Z" stroke="black"/>
<path id="633" d="M599.5 385.5V411.5H623V385.5H599.5Z" stroke="black"/>
<path id="el_4" d="M829.5 398.5V390.5H848.5V398.5H829.5Z" stroke="black"/>
<path id="st_5" d="M829.5 356.5V367.5H848.5V356.5H829.5Z" stroke="black"/>
<path id="st_6" d="M829.5 409.5V420.5H848.5V409.5H829.5Z" stroke="black"/>
<path id="tW_3" d="M829.5 398.5V409.5H848.5V398.5H829.5Z" stroke="black"/>
<path id="608" d="M829.5 420.5V456.5H848.5V420.5H829.5Z" stroke="black"/>
<path id="610" d="M829.5 456.5V485.5H848.5V456.5H829.5Z" stroke="black"/>
<path id="612" d="M829.5 485.5V497.5H848.5V485.5H829.5Z" stroke="black"/>
<path id="609_check" d="M854.5 422.5V458.5H865.5V422.5H854.5Z" stroke="black"/>
<path id="607_check" d="M854.5 391.5V422.5H865.5V391.5H854.5Z" stroke="black"/>
<path id="606" d="M854.5 348.5V367.5H865.5V348.5H854.5Z" stroke="black"/>
<path id="tT_2" d="M829.5 347.5V356.5H848.5V347.5H829.5Z" stroke="black"/>
<path id="604" d="M829.5 326.5V347.5H848.5V326.5H829.5Z" stroke="black"/>
<path id="602" d="M829.5 294V326.5H848.5V294H829.5Z" stroke="black"/>
<path id="601" d="M829.5 282.5V294H848.5V282.5H829.5Z" stroke="black"/>
<path id="609" d="M854.5 335.5V348.5H865.5V335.5H854.5Z" stroke="black"/>
<path id="603" d="M854.5 294.5V335.5H865.5V294.5H854.5Z" stroke="black"/>
<path id="Vector 1" d="M385.5 497.5H421.5V385.5H447.5V411.5H803.5V385.5H829.5V497.5H865.5V282.5H829.5V372.5H803.5V346.5H447.5V372.5H421.5V282.5H385.5V497.5Z" stroke="black"/>
</g>
</svg>
