<svg width="1200" height="800" viewBox="0 0 1200 800" fill="none" xmlns="http://www.w3.org/2000/svg">
<g id="7floor">
<path id="7floor_2" d="M421.5 282.5H384.5V498.5H421.5V385.5H446.5V411.5H804.5V385.5H829.5V498.5H866.5V282.5H829.5V372.5H804.5V346.5H446.5V372.5H421.5V282.5Z" stroke="black"/>
<path id="745_check" d="M421.5 482.5H402.5V498.5H421.5V482.5Z" stroke="black"/>
<path id="746_check" d="M396.5 486.5H384.5V454.5H396.5V486.5Z" stroke="black"/>
<path id="744" d="M421.5 482.5H402.5V450.5H421.5V482.5Z" stroke="black"/>
<path id="747" d="M396.5 443.5V454.5H384.5V443.5H396.5Z" stroke="black"/>
<path id="743" d="M421.5 450.5H402.5V420.5H421.5V450.5Z" stroke="black"/>
<path id="748" d="M396.5 433.5V443.5H384.5V433.5H396.5Z" stroke="black"/>
<path id="749_check" d="M396.5 422.5H384.5V433.5H396.5V422.5Z" stroke="black"/>
<path id="st" d="M402.5 410.5V420.5H421.5V410.5H402.5Z" stroke="black"/>
<path id="750_check" d="M396.5 412.5V422.5H384.5V412.5H396.5Z" stroke="black"/>
<path id="751_check" d="M396.5 402.5V412.5H384.5V402.5H396.5Z" stroke="black"/>
<path id="tT" d="M402.5 398.5V410.5H421.5V398.5H402.5Z" stroke="black"/>
<path id="752_check" d="M396.5 390.5V402.5H384.5V390.5H396.5Z" stroke="black"/>
<path id="el" d="M402.5 390.5V398.5H421.5V390.5H402.5Z" stroke="black"/>
<path id="753" d="M396.5 367.5H384.5V345.5H396.5V367.5Z" stroke="black"/>
<path id="st_2" d="M421.5 367.5H402.5V356.5H421.5V367.5Z" stroke="black"/>
<path id="tW" d="M402.5 345.5V356.5H421.5V345.5H402.5Z" stroke="black"/>
<path id="753&#208;&#176;" d="M396.5 326.5V345.5H384.5V326.5H396.5Z" stroke="black"/>
<path id="757" d="M421.5 326.5H402.5V345.5H421.5V326.5Z" stroke="black"/>
<path id="756" d="M402.5 305.5V326.5H421.5V305.5H402.5Z" stroke="black"/>
<path id="754_check" d="M396.5 294.5V326.5H384.5V294.5H396.5Z" stroke="black"/>
<path id="755" d="M402.5 282.5V305.5H421.5V282.5H402.5Z" stroke="black"/>
<path id="738&#208;&#176;" d="M474.5 372.5H446.5V346.5H474.5V372.5Z" stroke="black"/>
<path id="741_check" d="M463.5 385.5H446.5V411.5H463.5V385.5Z" stroke="black"/>
<path id="740" d="M474.5 411.5H463.5V385.5H474.5V411.5Z" stroke="black"/>
<path id="739 " d="M501.5 411.5H474.5V385.5H501.5V411.5Z" stroke="black"/>
<path id="738" d="M500.5 372.5H474.5V346.5H500.5V372.5Z" stroke="black"/>
<path id="736_check" d="M518.5 372.5H500.5V346.5H518.5V372.5Z" stroke="black"/>
<path id="737" d="M509.5 385.5V411.5H519.5V385.5H509.5Z" stroke="black"/>
<path id="733" d="M565.5 372.5H540.5V346.5H565.5V372.5Z" stroke="black"/>
<path id="735&#208;&#176;" d="M570.5 385.5H554.5V411.5H570.5V385.5Z" stroke="black"/>
<path id="tM" d="M580.5 411.5H570.5V385.5H580.5V411.5Z" stroke="black"/>
<path id="st_3" d="M580.5 372.5H565.5V346.5H580.5V372.5Z" stroke="black"/>
<path id="el_2" d="M587.5 372.5H580.5V346.5H587.5V372.5Z" stroke="black"/>
<path id="732_check" d="M587.5 385.5H580.5V411.5H587.5V385.5Z" stroke="black"/>
<path id="731" d="M596.5 385.5H587.5V411.5H596.5V385.5Z" stroke="black"/>
<path id="730" d="M629.5 411.5H596.5V385.5H629.5V411.5Z" stroke="black"/>
<path id="729" d="M597.5 346.5V372.5H615.5V346.5H597.5Z" stroke="black"/>
<path id="728" d="M635.5 372.5H615.5V346.5H635.5V372.5Z" stroke="black"/>
<path id="727" d="M646.5 385.5H629.5V411.5H646.5V385.5Z" stroke="black"/>
<path id="726" d="M653.5 372.5H635.5V346.5H653.5V372.5Z" stroke="black"/>
<path id="727&#208;&#176;" d="M671.5 411.5H646.5V385.5H671.5V411.5Z" stroke="black"/>
<path id="el_3" d="M663.5 346.5V372.5H670.5V346.5H663.5Z" stroke="black"/>
<path id="st_4" d="M685.5 372.5H670.5V346.5H685.5V372.5Z" stroke="black"/>
<path id="tW_2" d="M681.5 385.5H671.5V411.5H681.5V385.5Z" stroke="black"/>
<path id="725" d="M705.5 411.5H681.5V385.5H705.5V411.5Z" stroke="black"/>
<path id="722" d="M720.5 372.5H685.5V346.5H720.5V372.5Z" stroke="black"/>
<path id="724" d="M720.5 411.5H705.5V385.5H720.5V411.5Z" stroke="black"/>
<path id="723" d="M738.5 411.5H720.5V385.5H738.5V411.5Z" stroke="black"/>
<path id="721_check" d="M748.5 411.5H738.5V385.5H748.5V411.5Z" stroke="black"/>
<path id="720" d="M744.5 372.5H720.5V346.5H744.5V372.5Z" stroke="black"/>
<path id="719" d="M753.5 372.5H744.5V346.5H753.5V372.5Z" stroke="black"/>
<path id="718_check" d="M768.5 372.5H753.5V346.5H768.5V372.5Z" stroke="black"/>
<path id="717" d="M770.5 411.5H756.5V385.5H770.5V411.5Z" stroke="black"/>
<path id="715" d="M788.5 411.5H770.5V385.5H788.5V411.5Z" stroke="black"/>
<path id="713" d="M804.5 385.5H788.5V411.5H804.5V385.5Z" stroke="black"/>
<path id="716_check" d="M783.5 372.5H768.5V346.5H783.5V372.5Z" stroke="black"/>
<path id="714_check" d="M804.5 372.5H783.5V346.5H804.5V372.5Z" stroke="black"/>
<path id="701" d="M849.5 293.5H829.5V282.5H849.5V293.5Z" stroke="black"/>
<path id="702" d="M849.5 326.5H829.5V293.5H849.5V326.5Z" stroke="black"/>
<path id="703_check" d="M866.5 333.5H855.5V293.5H866.5V333.5Z" stroke="black"/>
<path id="704" d="M849.5 326.5V346.5H829.5V326.5H849.5Z" stroke="black"/>
<path id="705_check" d="M855.5 333.5V346.5H866.5V333.5H855.5Z" stroke="black"/>
<path id="tT_2" d="M849.5 346.5V356.5H829.5V346.5H849.5Z" stroke="black"/>
<path id="706" d="M855.5 346.5V367.5H866.5V346.5H855.5Z" stroke="black"/>
<path id="st_5" d="M849.5 356.5V367.5H829.5V356.5H849.5Z" stroke="black"/>
<path id="el_4" d="M829.5 390.5H849.5V398.5H829.5V390.5Z" stroke="black"/>
<path id="707_check" d="M866.5 390.5H855.5V422.5H866.5V390.5Z" stroke="black"/>
<path id="tW_3" d="M849.5 398.5V410.5H829.5V398.5H849.5Z" stroke="black"/>
<path id="st_6" d="M849.5 410.5V420.5H829.5V410.5H849.5Z" stroke="black"/>
<path id="708" d="M849.5 420.5V453.5H829.5V420.5H849.5Z" stroke="black"/>
<path id="709" d="M855.5 422.5V453.5H866.5V422.5H855.5Z" stroke="black"/>
<path id="710" d="M849.5 453.5V476.5H829.5V453.5H849.5Z" stroke="black"/>
<path id="711_check" d="M855.5 453.5V486.5H866.5V453.5H855.5Z" stroke="black"/>
<path id="712" d="M849.5 498.5V476.5H829.5V498.5H849.5Z" stroke="black"/>
<path id="735" d="M520 385.5H554.5M554.5 385.5V411.5H519.5V385.5H554.5Z" stroke="black"/>
<path id="734" d="M540.5 372.5H518.5V346.5H540.5V372.5Z" stroke="black"/>
</g>
</svg>
